<svg xmlns="http://www.w3.org/2000/svg" version="1.1" xmlns:xlink="http://www.w3.org/1999/xlink" xmlns:svgjs="http://svgjs.com/svgjs" width="1920" height="1080" preserveAspectRatio="none" viewBox="0 0 1920 1080"><g mask="url(&quot;#SvgjsMask1041&quot;)" fill="none"><rect width="1920" height="1080" x="0" y="0" fill="rgba(34, 34, 34, 1)"></rect><path d="M1040 767L1039 1380" stroke-width="10" stroke="url(#SvgjsLinearGradient1042)" stroke-linecap="round" class="Up"></path><path d="M756 16L755 -315" stroke-width="6" stroke="url(#SvgjsLinearGradient1042)" stroke-linecap="round" class="Up"></path><path d="M1596 523L1595 74" stroke-width="10" stroke="url(#SvgjsLinearGradient1042)" stroke-linecap="round" class="Up"></path><path d="M904 155L903 887" stroke-width="8" stroke="url(#SvgjsLinearGradient1043)" stroke-linecap="round" class="Down"></path><path d="M1422 978L1421 707" stroke-width="8" stroke="url(#SvgjsLinearGradient1043)" stroke-linecap="round" class="Down"></path><path d="M379 762L378 1303" stroke-width="6" stroke="url(#SvgjsLinearGradient1043)" stroke-linecap="round" class="Down"></path><path d="M760 950L759 1388" stroke-width="6" stroke="url(#SvgjsLinearGradient1043)" stroke-linecap="round" class="Down"></path><path d="M758 1019L757 1677" stroke-width="6" stroke="url(#SvgjsLinearGradient1043)" stroke-linecap="round" class="Down"></path><path d="M161 1040L160 331" stroke-width="6" stroke="url(#SvgjsLinearGradient1042)" stroke-linecap="round" class="Up"></path><path d="M1217 975L1216 360" stroke-width="6" stroke="url(#SvgjsLinearGradient1042)" stroke-linecap="round" class="Up"></path><path d="M1848 803L1847 1268" stroke-width="10" stroke="url(#SvgjsLinearGradient1042)" stroke-linecap="round" class="Up"></path><path d="M1333 101L1332 814" stroke-width="6" stroke="url(#SvgjsLinearGradient1042)" stroke-linecap="round" class="Up"></path><path d="M376 268L375 817" stroke-width="8" stroke="url(#SvgjsLinearGradient1043)" stroke-linecap="round" class="Down"></path><path d="M182 944L181 1219" stroke-width="10" stroke="url(#SvgjsLinearGradient1043)" stroke-linecap="round" class="Down"></path><path d="M619 989L618 1519" stroke-width="8" stroke="url(#SvgjsLinearGradient1042)" stroke-linecap="round" class="Up"></path><path d="M924 737L923 37" stroke-width="8" stroke="url(#SvgjsLinearGradient1043)" stroke-linecap="round" class="Down"></path><path d="M271 519L270 163" stroke-width="8" stroke="url(#SvgjsLinearGradient1043)" stroke-linecap="round" class="Down"></path><path d="M924 130L923 886" stroke-width="8" stroke="url(#SvgjsLinearGradient1043)" stroke-linecap="round" class="Down"></path><path d="M1314 342L1313 724" stroke-width="8" stroke="url(#SvgjsLinearGradient1043)" stroke-linecap="round" class="Down"></path><path d="M1826 803L1825 452" stroke-width="10" stroke="url(#SvgjsLinearGradient1043)" stroke-linecap="round" class="Down"></path><path d="M927 435L926 1014" stroke-width="10" stroke="url(#SvgjsLinearGradient1042)" stroke-linecap="round" class="Up"></path><path d="M969 880L968 1385" stroke-width="8" stroke="url(#SvgjsLinearGradient1042)" stroke-linecap="round" class="Up"></path><path d="M859 534L858 937" stroke-width="8" stroke="url(#SvgjsLinearGradient1043)" stroke-linecap="round" class="Down"></path><path d="M125 783L124 386" stroke-width="8" stroke="url(#SvgjsLinearGradient1042)" stroke-linecap="round" class="Up"></path><path d="M110 946L109 646" stroke-width="10" stroke="url(#SvgjsLinearGradient1043)" stroke-linecap="round" class="Down"></path><path d="M102 82L101 860" stroke-width="8" stroke="url(#SvgjsLinearGradient1042)" stroke-linecap="round" class="Up"></path><path d="M1002 936L1001 336" stroke-width="8" stroke="url(#SvgjsLinearGradient1043)" stroke-linecap="round" class="Down"></path><path d="M1296 632L1295 1413" stroke-width="6" stroke="url(#SvgjsLinearGradient1043)" stroke-linecap="round" class="Down"></path><path d="M1596 612L1595 -15" stroke-width="6" stroke="url(#SvgjsLinearGradient1043)" stroke-linecap="round" class="Down"></path><path d="M1600 46L1599 399" stroke-width="8" stroke="url(#SvgjsLinearGradient1043)" stroke-linecap="round" class="Down"></path><path d="M1648 805L1647 1230" stroke-width="6" stroke="url(#SvgjsLinearGradient1042)" stroke-linecap="round" class="Up"></path><path d="M311 967L310 446" stroke-width="10" stroke="url(#SvgjsLinearGradient1043)" stroke-linecap="round" class="Down"></path><path d="M1584 904L1583 1404" stroke-width="10" stroke="url(#SvgjsLinearGradient1042)" stroke-linecap="round" class="Up"></path><path d="M589 425L588 -287" stroke-width="6" stroke="url(#SvgjsLinearGradient1042)" stroke-linecap="round" class="Up"></path><path d="M306 61L305 -449" stroke-width="8" stroke="url(#SvgjsLinearGradient1042)" stroke-linecap="round" class="Up"></path><path d="M679 597L678 -164" stroke-width="6" stroke="url(#SvgjsLinearGradient1043)" stroke-linecap="round" class="Down"></path><path d="M739 746L738 201" stroke-width="6" stroke="url(#SvgjsLinearGradient1043)" stroke-linecap="round" class="Down"></path><path d="M1333 286L1332 675" stroke-width="6" stroke="url(#SvgjsLinearGradient1043)" stroke-linecap="round" class="Down"></path><path d="M1679 776L1678 1387" stroke-width="10" stroke="url(#SvgjsLinearGradient1043)" stroke-linecap="round" class="Down"></path><path d="M755 780L754 1310" stroke-width="8" stroke="url(#SvgjsLinearGradient1042)" stroke-linecap="round" class="Up"></path><path d="M1114 730L1113 368" stroke-width="8" stroke="url(#SvgjsLinearGradient1043)" stroke-linecap="round" class="Down"></path><path d="M545 892L544 1213" stroke-width="10" stroke="url(#SvgjsLinearGradient1043)" stroke-linecap="round" class="Down"></path><path d="M1419 807L1418 1241" stroke-width="10" stroke="url(#SvgjsLinearGradient1043)" stroke-linecap="round" class="Down"></path><path d="M866 8L865 555" stroke-width="8" stroke="url(#SvgjsLinearGradient1042)" stroke-linecap="round" class="Up"></path><path d="M684 938L683 378" stroke-width="8" stroke="url(#SvgjsLinearGradient1043)" stroke-linecap="round" class="Down"></path><path d="M1103 366L1102 34" stroke-width="10" stroke="url(#SvgjsLinearGradient1043)" stroke-linecap="round" class="Down"></path><path d="M1803 854L1802 1619" stroke-width="8" stroke="url(#SvgjsLinearGradient1042)" stroke-linecap="round" class="Up"></path><path d="M729 304L728 1012" stroke-width="10" stroke="url(#SvgjsLinearGradient1042)" stroke-linecap="round" class="Up"></path></g><defs><mask id="SvgjsMask1041"><rect width="1920" height="1080" fill="#ffffff"></rect></mask><linearGradient x1="0%" y1="100%" x2="0%" y2="0%" id="SvgjsLinearGradient1042"><stop stop-color="rgba(68, 68, 68, 0)" offset="0"></stop><stop stop-color="rgba(68, 68, 68, 1)" offset="1"></stop></linearGradient><linearGradient x1="0%" y1="0%" x2="0%" y2="100%" id="SvgjsLinearGradient1043"><stop stop-color="rgba(68, 68, 68, 0)" offset="0"></stop><stop stop-color="rgba(68, 68, 68, 1)" offset="1"></stop></linearGradient></defs></svg>